<?xml version="1.0" encoding="UTF-8" standalone="no"?>
<!-- Generator: Adobe Illustrator 19.1.0, SVG Export Plug-In . SVG Version: 6.00 Build 0)  -->

<svg
   xmlns:dc="http://purl.org/dc/elements/1.1/"
   xmlns:cc="http://creativecommons.org/ns#"
   xmlns:rdf="http://www.w3.org/1999/02/22-rdf-syntax-ns#"
   xmlns:svg="http://www.w3.org/2000/svg"
   xmlns="http://www.w3.org/2000/svg"
   xmlns:sodipodi="http://sodipodi.sourceforge.net/DTD/sodipodi-0.dtd"
   xmlns:inkscape="http://www.inkscape.org/namespaces/inkscape"
   version="1.1"
   id="Capa_1"
   x="0px"
   y="0px"
   viewBox="0 0 440.125 440.125"
   style="enable-background:new 0 0 440.125 440.125;"
   xml:space="preserve"
   sodipodi:docname="copy-archive-active.svg"
   inkscape:version="0.92.4 5da689c313, 2019-01-14"><metadata
   id="metadata4880"><rdf:RDF><cc:Work
       rdf:about=""><dc:format>image/svg+xml</dc:format><dc:type
         rdf:resource="http://purl.org/dc/dcmitype/StillImage" /><dc:title></dc:title></cc:Work></rdf:RDF></metadata><defs
   id="defs4878" /><sodipodi:namedview
   pagecolor="#ffffff"
   bordercolor="#666666"
   borderopacity="1"
   objecttolerance="10"
   gridtolerance="10"
   guidetolerance="10"
   inkscape:pageopacity="0"
   inkscape:pageshadow="2"
   inkscape:window-width="1920"
   inkscape:window-height="1040"
   id="namedview4876"
   showgrid="false"
   inkscape:zoom="0.7583173"
   inkscape:cx="-38.923951"
   inkscape:cy="252.53157"
   inkscape:window-x="0"
   inkscape:window-y="0"
   inkscape:window-maximized="1"
   inkscape:current-layer="Capa_1" />
<g
   id="g4843"
   style="fill:#5f5f69;fill-opacity:1">
	<g
   id="g4811"
   style="fill:#5f5f69;fill-opacity:1">
		<path
   d="M313.938,187.702L212.563,86.327c-3.079-3.958-7.836-6.37-12.85-6.301c-0.746,0.023-1.49,0.099-2.225,0.099H55.963    c-8.836,0-15.999,7.415-16,16.251v328c0.001,8.836,7.164,15.749,16,15.749h248c8.836,0,15.999-6.913,16-15.749v-221.4    C320.92,197.164,318.605,191.296,313.938,187.702L313.938,187.702z M215.963,135.002l49.375,49.124h-49.375L215.963,135.002    L215.963,135.002z M287.963,408.126h-216v-296h112v85.676c-0.843,5.145,0.873,10.379,4.6,14.025    c0.041,0.042,0.083,0.084,0.125,0.125c0.074,0.067,0.149,0.008,0.225,0.074c3.639,3.482,8.706,5.099,13.675,4.099h85.375V408.126z    "
   id="path4807"
   style="fill:#5f5f69;fill-opacity:1" />
		<path
   d="M393.932,107.689L292.557,6.314c-3.02-3.891-7.919-6.376-12.844-6.313c-0.744,0.032-1.486,0.124-2.219,0.124H135.963    c-4.189,0-8.351,1.851-11.313,4.812c-2.962,2.962-4.686,7.25-4.687,11.439v43.749h32v-28h112V97.72l38.656,38.405h65.344v192h-28    v32h44c4.189,0,8.351-1.599,11.313-4.561c2.962-2.962,4.686-6.999,4.687-11.188V122.971    C400.897,117.296,398.49,111.196,393.932,107.689z M295.963,104.126V55.002l49.375,49.124H295.963z"
   id="path4809"
   style="fill:#5f5f69;fill-opacity:1" />
	</g>
	<g
   id="g4813"
   style="fill:#5f5f69;fill-opacity:1">
	</g>
	<g
   id="g4815"
   style="fill:#5f5f69;fill-opacity:1">
	</g>
	<g
   id="g4817"
   style="fill:#5f5f69;fill-opacity:1">
	</g>
	<g
   id="g4819"
   style="fill:#5f5f69;fill-opacity:1">
	</g>
	<g
   id="g4821"
   style="fill:#5f5f69;fill-opacity:1">
	</g>
	<g
   id="g4823"
   style="fill:#5f5f69;fill-opacity:1">
	</g>
	<g
   id="g4825"
   style="fill:#5f5f69;fill-opacity:1">
	</g>
	<g
   id="g4827"
   style="fill:#5f5f69;fill-opacity:1">
	</g>
	<g
   id="g4829"
   style="fill:#5f5f69;fill-opacity:1">
	</g>
	<g
   id="g4831"
   style="fill:#5f5f69;fill-opacity:1">
	</g>
	<g
   id="g4833"
   style="fill:#5f5f69;fill-opacity:1">
	</g>
	<g
   id="g4835"
   style="fill:#5f5f69;fill-opacity:1">
	</g>
	<g
   id="g4837"
   style="fill:#5f5f69;fill-opacity:1">
	</g>
	<g
   id="g4839"
   style="fill:#5f5f69;fill-opacity:1">
	</g>
	<g
   id="g4841"
   style="fill:#5f5f69;fill-opacity:1">
	</g>
</g>
<g
   id="g4845">
</g>
<g
   id="g4847">
</g>
<g
   id="g4849">
</g>
<g
   id="g4851">
</g>
<g
   id="g4853">
</g>
<g
   id="g4855">
</g>
<g
   id="g4857">
</g>
<g
   id="g4859">
</g>
<g
   id="g4861">
</g>
<g
   id="g4863">
</g>
<g
   id="g4865">
</g>
<g
   id="g4867">
</g>
<g
   id="g4869">
</g>
<g
   id="g4871">
</g>
<g
   id="g4873">
</g>
</svg>